# Blender v2.77 (sub 0) OBJ File: ''
# www.blender.org
mtllib SheriffOffice_Right.mtl
o Model_SheriffOffice_Right
v -2.129181 0.024800 0.140016
v -2.184823 0.024801 0.140015
v -2.184823 4.259624 0.140020
v -2.129182 4.259720 0.140019
v 2.129774 4.413153 0.140015
v 2.184988 4.413153 0.140014
v 2.184992 4.259743 0.140019
v 2.129777 4.259722 0.140019
v -2.129181 4.413153 0.140016
v -2.129182 4.259720 0.140019
v -2.184823 4.413153 0.140016
v -2.184823 4.259624 0.140020
v -2.201774 4.259624 -0.140013
v -2.201773 0.010165 -0.140017
v -2.129181 0.010164 -0.140017
v -2.129183 4.252402 -0.140013
v -2.201773 4.427788 -0.140017
v -2.129182 4.427789 -0.140017
v 2.129774 4.427789 -0.140018
v 2.129777 4.252403 -0.140013
v 2.201771 4.427789 -0.140018
v 2.129774 0.010166 -0.140019
v 2.201774 4.259742 -0.140013
v 2.201771 0.010167 -0.140019
v 2.129774 0.010166 -0.140019
v -2.129181 0.010164 -0.140017
v -2.129181 0.010164 0.056650
v 2.115383 0.010166 0.056648
v 2.184988 0.024803 0.140013
v 2.129774 0.024803 0.140013
v 2.129777 4.259722 0.140019
v 2.184992 4.259743 0.140019
v -2.201773 0.010165 -0.140017
v -2.129181 0.010164 0.056650
v -2.129181 0.010164 -0.140017
v -2.201772 0.010165 0.125379
v -2.114633 0.010165 0.125379
v -2.129181 0.010164 0.056650
v -2.114633 0.010165 0.125379
v -2.114634 4.245246 0.125384
v -2.114634 4.245246 0.056654
v -2.114634 4.245246 0.056654
v -2.114634 4.245246 0.125384
v 2.115385 4.245246 0.125385
v 2.115385 4.245246 0.056655
v 2.115385 4.245246 0.056655
v 2.115385 4.245246 0.125385
v 2.115383 0.010166 0.125377
v 2.115383 0.010166 0.056648
v 2.115383 0.010166 0.056648
v 2.115383 0.010166 0.125377
v 2.201770 0.010167 0.125377
v 2.201771 0.010167 -0.140019
v 2.129774 0.010166 -0.140019
v 2.201774 4.259742 -0.140013
v 2.201771 0.010167 -0.140019
v 2.201770 0.010167 0.125377
v 2.201774 4.259742 0.125383
v 2.201771 4.427789 -0.140018
v 2.201770 4.427789 0.125378
v 2.201771 4.427789 -0.140018
v 2.201770 4.427789 0.125378
v 2.129774 4.427789 0.125379
v 2.129774 4.427789 -0.140018
v -2.129182 4.427789 -0.140017
v -2.129181 4.427789 0.125380
v -2.201773 4.427788 -0.140017
v -2.201772 4.427788 0.125380
v -2.201774 4.259624 -0.140013
v -2.201773 4.427788 -0.140017
v -2.201772 4.427788 0.125380
v -2.201773 4.259624 0.125384
v -2.201773 0.010165 -0.140017
v -2.201772 0.010165 0.125379
v -2.184823 0.024801 0.140015
v -2.129181 0.024800 0.140016
v -2.114633 0.010165 0.125379
v -2.201772 0.010165 0.125379
v -2.129181 0.024800 0.140016
v -2.129182 4.259720 0.140019
v -2.114634 4.245246 0.125384
v -2.114633 0.010165 0.125379
v -2.129182 4.259720 0.140019
v 2.129777 4.259722 0.140019
v 2.115385 4.245246 0.125385
v -2.114634 4.245246 0.125384
v 2.129777 4.259722 0.140019
v 2.129774 0.024803 0.140013
v 2.115383 0.010166 0.125377
v 2.115385 4.245246 0.125385
v 2.129774 0.024803 0.140013
v 2.184988 0.024803 0.140013
v 2.201770 0.010167 0.125377
v 2.115383 0.010166 0.125377
v 2.184988 0.024803 0.140013
v 2.184992 4.259743 0.140019
v 2.201774 4.259742 0.125383
v 2.201770 0.010167 0.125377
v 2.184992 4.259743 0.140019
v 2.184988 4.413153 0.140014
v 2.201770 4.427789 0.125378
v 2.201774 4.259742 0.125383
v 2.184988 4.413153 0.140014
v 2.129774 4.427789 0.125379
v 2.201770 4.427789 0.125378
v 2.129774 4.413153 0.140015
v -2.129181 4.427789 0.125380
v -2.129181 4.413153 0.140016
v -2.201772 4.427788 0.125380
v -2.184823 4.413153 0.140016
v -2.184823 4.413153 0.140016
v -2.184823 4.259624 0.140020
v -2.201773 4.259624 0.125384
v -2.201772 4.427788 0.125380
v -2.184823 4.259624 0.140020
v -2.184823 0.024801 0.140015
v -2.201772 0.010165 0.125379
v -2.201773 4.259624 0.125384
v -2.114634 4.245246 0.056654
v 2.115385 4.245246 0.056655
v 2.115383 0.010166 0.056648
v -2.129181 0.010164 0.056650
v 2.115486 0.010045 0.045185
v 2.115938 0.300507 0.048330
v -1.802044 4.244881 0.048331
v -2.114311 4.244881 0.048331
v 1.809178 0.010045 0.045185
v -2.114311 3.965363 0.048331
v 2.115486 0.010045 0.112289
v -1.802044 4.244881 0.115435
v 2.115938 0.300507 0.115434
v -2.114311 4.244881 0.115435
v -2.114311 3.965363 0.115435
v 1.809178 0.010045 0.112289
v 2.115486 0.010045 0.045185
v 2.115486 0.010045 0.112289
v 2.115938 0.300507 0.115434
v 2.115938 0.300507 0.048330
v 2.115938 0.300507 0.048330
v 2.115938 0.300507 0.115434
v -1.802044 4.244881 0.115435
v -1.802044 4.244881 0.048331
v -1.802044 4.244881 0.048331
v -1.802044 4.244881 0.115435
v -2.114311 4.244881 0.115435
v -2.114311 4.244881 0.048331
v -2.114311 3.965363 0.048331
v -2.114311 3.965363 0.115435
v 1.809178 0.010045 0.112289
v 1.809178 0.010045 0.045185
v 2.115486 0.010045 0.045185
v 1.809178 0.010045 0.045185
v 1.809178 0.010045 0.112289
v 2.115486 0.010045 0.112289
v -2.114311 4.244881 0.115435
v -2.114311 3.965363 0.115435
v -2.114311 3.965363 0.048331
v -2.114311 4.244881 0.048331
vt 0.9729 0.5657
vt 0.9747 0.0128
vt 0.9896 0.0129
vt 0.9894 0.5656
vt 0.9747 0.0126
vt 0.9895 0.0130
vt 0.9895 0.0183
vt 0.9747 0.0183
vt 0.9894 0.5549
vt 0.9773 0.5570
vt 0.9894 0.5635
vt 0.9780 0.5642
vt 0.3870 0.7975
vt 0.3821 0.7975
vt 0.3821 0.4177
vt 0.3870 0.4174
vt 0.3821 0.4026
vt 0.3870 0.4026
vt 0.8312 0.4026
vt 0.8312 0.4174
vt 0.8376 0.4026
vt 0.8312 0.7975
vt 0.8376 0.4177
vt 0.8376 0.7975
vt 0.9874 0.4973
vt 0.9785 0.4973
vt 0.9785 0.1036
vt 0.9874 0.1049
vt 0.9748 0.5652
vt 0.9747 0.0128
vt 0.9896 0.0128
vt 0.9897 0.5649
vt 0.9865 0.3553
vt 0.9865 0.3786
vt 0.9801 0.3553
vt 0.9801 0.3868
vt 0.9878 0.3868
vt 0.9868 0.4885
vt 0.9869 0.1110
vt 0.9797 0.1110
vt 0.9798 0.4885
vt 0.9868 0.1361
vt 0.9868 0.4645
vt 0.9798 0.4645
vt 0.9798 0.1361
vt 0.9866 0.1110
vt 0.9866 0.4885
vt 0.9795 0.4885
vt 0.9795 0.1110
vt 0.9877 0.4554
vt 0.9801 0.4554
vt 0.9801 0.4472
vt 0.9877 0.4239
vt 0.9813 0.4239
vt 0.9313 0.8947
vt 0.9213 0.8947
vt 0.9213 0.5166
vt 0.9313 0.5166
vt 0.9213 0.5027
vt 0.9313 0.5027
vt 0.9314 0.8885
vt 0.9314 0.8946
vt 0.9213 0.8946
vt 0.9213 0.8885
vt 0.9213 0.5222
vt 0.9314 0.5222
vt 0.9213 0.5166
vt 0.9314 0.5166
vt 0.9313 0.5027
vt 0.9213 0.5027
vt 0.9213 0.5166
vt 0.9313 0.5166
vt 0.9213 0.8947
vt 0.9313 0.8947
vt 0.9878 0.3868
vt 0.9865 0.3885
vt 0.9816 0.3885
vt 0.9801 0.3868
vt 0.9907 0.5655
vt 0.9894 0.5656
vt 0.9896 0.0129
vt 0.9914 0.0116
vt 0.9738 0.0183
vt 0.9747 0.0183
vt 0.9773 0.5570
vt 0.9752 0.5543
vt 0.9723 0.0097
vt 0.9747 0.0128
vt 0.9748 0.5652
vt 0.9731 0.5654
vt 0.9877 0.4554
vt 0.9862 0.4571
vt 0.9813 0.4571
vt 0.9801 0.4554
vt 0.9907 0.5671
vt 0.9897 0.5649
vt 0.9896 0.0128
vt 0.9913 0.0097
vt 0.9913 0.0118
vt 0.9895 0.0130
vt 0.9747 0.0126
vt 0.9738 0.0118
vt 0.9913 0.0118
vt 0.9913 0.0183
vt 0.9895 0.0130
vt 0.9895 0.0183
vt 0.9906 0.5549
vt 0.9894 0.5549
vt 0.9906 0.5656
vt 0.9894 0.5635
vt 0.9760 0.5656
vt 0.9780 0.5642
vt 0.9894 0.5635
vt 0.9906 0.5656
vt 0.9723 0.0097
vt 0.9747 0.0128
vt 0.9729 0.5657
vt 0.9731 0.5638
vt 0.4487 -0.0008
vt 0.4487 0.3782
vt 0.0059 0.3786
vt 0.0059 -0.0008
vt 1.0697 0.6045
vt 1.8795 0.5864
vt 1.9099 0.6117
vt 1.0518 0.6266
vt 1.8845 0.6432
vt 1.0913 0.6587
vt 0.5195 0.9424
vt 0.0258 0.9430
vt 0.5308 0.9289
vt 0.0071 0.9271
vt 0.0231 0.9074
vt 0.5062 0.9079
vt 0.0423 0.9623
vt 0.0095 0.9628
vt 0.0095 0.9487
vt 0.0423 0.9482
vt 0.4882 0.9623
vt 0.0423 0.9623
vt 0.0423 0.9482
vt 0.4882 0.9482
vt 0.5242 0.9773
vt 0.4889 0.9773
vt 0.4889 0.9632
vt 0.5242 0.9632
vt 0.4882 0.9770
vt 0.0411 0.9773
vt 0.0411 0.9632
vt 0.4882 0.9629
vt 0.4889 0.9623
vt 0.4889 0.9482
vt 0.5235 0.9482
vt 0.5235 0.9623
vt 0.0411 0.9632
vt 0.0411 0.9773
vt 0.0095 0.9782
vt 0.0095 0.9641
vn 0.0000 -0.0000 1.0000
vn 0.0000 0.0000 -1.0000
vn 0.0000 -1.0000 -0.0000
vn 0.9944 -0.0017 -0.1053
vn 0.9944 -0.0017 -0.1052
vn -1.0000 0.0000 -0.0000
vn 1.0000 -0.0000 0.0000
vn 0.0000 1.0000 -0.0000
vn -0.0000 -0.7071 0.7071
vn -0.0000 -0.7072 0.7071
vn 0.7092 -0.0000 0.7050
vn 0.7093 -0.0000 0.7050
vn 0.0000 -0.7110 0.7032
vn -0.7131 -0.0000 0.7011
vn -0.7130 -0.0000 0.7012
vn 0.6573 -0.0000 0.7537
vn 0.6573 -0.0000 0.7536
vn 0.0000 0.7071 0.7071
vn 0.0000 0.7072 0.7071
vn -0.6535 0.0000 0.7569
vn -0.6536 0.0000 0.7569
vn 0.0050 0.0054 -1.0000
vn 0.0052 0.0055 -1.0000
vn -0.0004 0.0004 -1.0000
vn -0.0050 -0.0054 1.0000
vn -0.0052 -0.0055 1.0000
vn 0.0007 -0.0000 1.0000
vn 0.0003 -0.0004 1.0000
vn 1.0000 -0.0016 -0.0000
vn 0.7095 0.7047 0.0000
vn -0.7100 -0.7042 0.0000
usemtl Mat_SheriffOffice
s 1
f 3/1/1 2/2/1 1/3/1
f 4/4/1 3/1/1 1/3/1
f 7/5/1 6/6/1 5/7/1
f 8/8/1 7/5/1 5/7/1
f 8/8/1 5/7/1 9/9/1
f 10/10/1 8/8/1 9/9/1
f 10/10/1 9/9/1 11/11/1
f 12/12/1 10/10/1 11/11/1
f 15/13/2 14/14/2 13/15/2
f 16/16/2 15/13/2 13/15/2
f 16/16/2 13/15/2 17/17/2
f 18/18/2 16/16/2 17/17/2
f 16/16/2 18/18/2 19/19/2
f 16/16/2 20/20/2 15/13/2
f 20/20/2 16/16/2 19/19/2
f 20/20/2 19/19/2 21/21/2
f 20/20/2 22/22/2 15/13/2
f 23/23/2 20/20/2 21/21/2
f 22/22/2 20/20/2 23/23/2
f 24/24/2 22/22/2 23/23/2
f 27/25/3 26/26/3 25/27/3
f 28/28/3 27/25/3 25/27/3
f 31/29/1 30/30/1 29/31/1
f 32/32/1 31/29/1 29/31/1
f 35/33/3 34/34/3 33/35/3
f 34/34/3 36/36/3 33/35/3
f 37/37/3 36/36/3 34/34/3
f 40/38/4 39/39/4 38/40/5
f 41/41/4 40/38/4 38/40/5
f 44/42/3 43/43/3 42/44/3
f 45/45/3 44/42/3 42/44/3
f 48/46/6 47/47/6 46/48/6
f 49/49/6 48/46/6 46/48/6
f 52/50/3 51/51/3 50/52/3
f 53/53/3 52/50/3 50/52/3
f 54/54/3 53/53/3 50/52/3
f 57/55/7 56/56/7 55/57/7
f 58/58/7 57/55/7 55/57/7
f 58/58/7 55/57/7 59/59/7
f 60/60/7 58/58/7 59/59/7
f 63/61/8 62/62/8 61/63/8
f 64/64/8 63/61/8 61/63/8
f 63/61/8 64/64/8 65/65/8
f 66/66/8 63/61/8 65/65/8
f 66/66/8 65/65/8 67/67/8
f 68/68/8 66/66/8 67/67/8
f 71/69/6 70/70/6 69/71/6
f 72/72/6 71/69/6 69/71/6
f 72/72/6 69/71/6 73/73/6
f 74/74/6 72/72/6 73/73/6
f 77/75/9 76/76/10 75/77/9
f 78/78/9 77/75/9 75/77/9
f 81/79/11 80/80/11 79/81/12
f 82/82/12 81/79/11 79/81/12
f 85/83/13 84/84/13 83/85/13
f 86/86/13 85/83/13 83/85/13
f 89/87/14 88/88/14 87/89/15
f 90/90/15 89/87/14 87/89/15
f 93/91/9 92/92/9 91/93/9
f 94/94/9 93/91/9 91/93/9
f 97/95/16 96/96/16 95/97/17
f 98/98/17 97/95/16 95/97/17
f 101/99/16 100/100/16 99/101/17
f 102/102/17 101/99/16 99/101/17
f 105/103/18 104/104/18 103/105/18
f 104/104/18 106/106/18 103/105/18
f 104/104/18 107/107/18 106/106/18
f 107/107/18 108/108/18 106/106/18
f 107/107/18 109/109/18 108/108/18
f 109/109/18 110/110/19 108/108/18
f 113/111/20 112/112/20 111/113/21
f 114/114/21 113/111/20 111/113/21
f 117/115/20 116/116/20 115/117/20
f 118/118/20 117/115/20 115/117/20
f 121/119/1 120/120/1 119/121/1
f 122/122/1 121/119/1 119/121/1
f 125/123/22 124/124/22 123/125/23
f 126/126/22 125/123/22 123/125/23
f 123/125/23 127/127/24 126/126/22
f 127/127/24 128/128/24 126/126/22
f 131/129/25 130/130/25 129/131/26
f 130/130/25 132/132/25 129/131/26
f 132/132/25 133/133/27 129/131/26
f 133/133/27 134/134/28 129/131/26
f 137/135/29 136/136/29 135/137/29
f 138/138/29 137/135/29 135/137/29
f 141/139/30 140/140/30 139/141/30
f 142/142/30 141/139/30 139/141/30
f 145/143/8 144/144/8 143/145/8
f 146/146/8 145/143/8 143/145/8
f 149/147/31 148/148/31 147/149/31
f 150/150/31 149/147/31 147/149/31
f 153/151/3 152/152/3 151/153/3
f 154/154/3 153/151/3 151/153/3
f 157/155/6 156/156/6 155/157/6
f 158/158/6 157/155/6 155/157/6
