# Blender v2.82 (sub 7) OBJ File: ''
# www.blender.org
mtllib magnet.mtl
o Object_magnet
v -0.250000 0.485513 -1.244130
v -0.750000 0.004257 -1.244130
v -0.750000 0.485513 -1.244130
v -0.250000 0.485513 -0.494125
v 0.250000 0.004257 0.255875
v 0.000000 0.004257 -0.244124
v 0.750000 0.004257 -0.244124
v 0.250000 0.004257 -0.494125
v -0.750000 0.004257 -0.244124
v -0.250000 0.004257 -1.244130
v 0.250000 0.485513 -0.494125
v 0.000000 0.485513 -0.244124
v -0.750000 0.485513 -0.244124
v -0.250000 0.004257 0.255875
v -0.250000 0.485513 0.255875
v 0.250000 0.485513 0.255875
v 0.750000 0.485513 -0.244124
v 0.750000 0.004257 -1.244130
v 0.250000 0.004257 -1.244130
v 0.750000 0.485513 -1.244130
v 0.250000 0.485513 -1.244130
v -0.250000 0.004257 -0.494125
vt 0.880250 0.467178
vt 0.914773 0.457031
vt 0.916945 0.467178
vt 0.878078 0.511719
vt 0.878078 0.457031
vt 0.914773 0.457031
vt 0.841383 0.566406
vt 0.859730 0.529948
vt 0.804688 0.529948
vt 0.841383 0.511719
vt 0.914773 0.529948
vt 0.878078 0.457031
vt 0.841383 0.511719
vt 0.859730 0.529948
vt 0.804688 0.457031
vt 0.804688 0.529948
vt 0.804688 0.457031
vt 0.804688 0.529948
vt 0.914773 0.566406
vt 0.859730 0.566406
vt 0.914773 0.531315
vt 0.859730 0.531315
vt 0.841383 0.566406
vt 0.804688 0.529948
vt 0.804688 0.457031
vt 0.841383 0.457031
vt 0.806860 0.467178
vt 0.843555 0.467178
vt 0.914773 0.529948
vt 0.878078 0.511719
vt 0.878078 0.566406
vt 0.804688 0.457031
vt 0.841383 0.457031
vt 0.878078 0.566406
vn 0.5773 0.5773 -0.5773
vn -0.5773 -0.5773 -0.5773
vn -0.5773 0.5773 -0.5773
vn 0.5491 0.8042 -0.2275
vn 0.2971 -0.6302 0.7173
vn 0.0000 -0.9045 -0.4264
vn 0.7173 -0.6302 0.2971
vn -0.5491 -0.8042 -0.2275
vn -0.7173 -0.6302 0.2971
vn 0.5773 -0.5773 -0.5773
vn -0.5491 0.8042 -0.2275
vn 0.0000 0.9045 -0.4264
vn -0.7173 0.6302 0.2971
vn -0.2971 -0.6302 0.7173
vn -0.2971 0.6302 0.7173
vn 0.2971 0.6302 0.7173
vn 0.7173 0.6302 0.2971
vn 0.5491 -0.8042 -0.2275
usemtl default
s 1
f 1/1/1 2/2/2 3/3/3
f 4/4/4 1/5/1 3/6/3
f 5/7/5 6/8/6 7/9/7
f 7/9/7 6/8/6 8/10/8
f 9/11/9 2/2/2 10/12/10
f 10/12/10 2/2/2 1/1/1
f 8/10/8 6/8/6 11/13/11
f 11/13/11 6/8/6 12/14/12
f 2/15/2 9/16/9 3/17/3
f 3/17/3 9/16/9 13/18/13
f 14/19/14 5/20/5 15/21/15
f 15/21/15 5/20/5 16/22/16
f 5/7/5 7/9/7 16/23/16
f 16/23/16 7/9/7 17/24/17
f 18/25/10 19/26/2 20/27/1
f 20/27/1 19/26/2 21/28/3
f 3/6/3 13/29/13 4/4/4
f 4/4/4 13/29/13 12/14/12
f 4/4/4 12/14/12 22/30/18
f 22/30/18 12/14/12 6/8/6
f 22/30/18 6/8/6 14/31/14
f 14/31/14 6/8/6 5/7/5
f 20/32/1 17/24/17 18/25/10
f 18/25/10 17/24/17 7/9/7
f 18/25/10 7/9/7 19/26/2
f 19/26/2 7/9/7 8/10/8
f 19/26/2 8/10/8 21/33/3
f 21/33/3 8/10/8 11/13/11
f 21/33/3 11/13/11 20/32/1
f 20/32/1 11/13/11 17/24/17
f 1/5/1 4/4/4 10/12/10
f 10/12/10 4/4/4 22/30/18
f 10/12/10 22/30/18 9/11/9
f 9/11/9 22/30/18 14/31/14
f 9/11/9 14/31/14 13/29/13
f 13/29/13 14/31/14 15/34/15
f 13/29/13 15/34/15 12/14/12
f 12/14/12 15/34/15 16/23/16
f 12/14/12 16/23/16 11/13/11
f 11/13/11 16/23/16 17/24/17
