# 3ds Max Wavefront OBJ Exporter v0.97b - (c)2007 guruware
# File Created: 05.03.2013 15:15:52

mtllib DreamShield.mtl

#
# object mesh2
#

v  -7.6945 17.6838 -1.5250
v  -7.6813 6.5350 -1.6097
v  -14.6229 11.4838 -3.0426
v  -0.0195 17.6889 -1.0156
v  -0.0292 25.9793 -0.9526
v  7.6469 25.9921 -1.4443
v  7.6358 35.4180 -1.3727
v  14.5860 26.0113 -2.8989
v  -7.7268 45.2233 -1.3156
v  -7.7153 35.4001 -1.3903
v  -14.6510 35.4032 -2.8608
v  -0.0519 45.2284 -0.8062
v  -0.0635 55.1462 -0.7309
v  7.6126 55.1590 -1.2226
v  7.6063 60.4775 -1.1822
v  14.5523 55.1789 -2.6773
v  -14.6302 17.6868 -2.9955
v  -19.4933 17.3239 -5.0614
v  -7.7042 25.9742 -1.4620
v  2.1865 48.9109 -5.3650
v  -0.0566 52.1639 -3.7030
v  2.3036 52.1683 -3.9061
v  -2.2883 48.9057 -5.3701
v  -1.6223 48.6753 -14.2343
v  -1.8840 45.5952 -11.6365
v  -1.7609 44.9943 -12.3555
v  -19.5562 35.4133 -4.9502
v  -22.1144 35.4268 -7.1259
v  -19.5677 45.2039 -4.8758
v  -19.5451 25.9873 -5.0218
v  -14.6399 25.9772 -2.9325
v  22.0480 35.4783 -7.0751
v  22.0594 25.7324 -7.1492
v  19.4959 26.0328 -4.9770
v  19.4644 17.3694 -5.0166
v  14.5957 17.7209 -2.9619
v  14.6030 11.5178 -3.0090
v  7.6566 17.7017 -1.5073
v  1.5413 48.6789 -14.2307
v  1.8044 45.5995 -11.6322
v  -1.4079 47.0395 -15.5776
v  -1.7390 26.4146 -12.4967
v  1.3339 47.0427 -15.5745
v  1.6842 44.9983 -12.3515
v  -1.3813 24.4194 -15.7496
v  -1.5918 22.7629 -14.4313
v  -2.2572 22.3962 -5.5716
v  2.2177 22.4014 -5.5665
v  -0.0178 19.1182 -3.9542
v  -1.8608 25.8025 -11.7869
v  -8.3042 60.4507 -0.1070
v  -8.2980 55.1321 -0.1474
v  -0.0711 60.4560 0.4596
v  -15.5431 60.4544 -1.7195
v  -14.6818 60.4642 -2.6707
v  -19.5091 60.4769 -4.7592
v  -22.1416 60.4910 -6.9330
v  -19.5791 55.1562 -4.7999
v  -14.6749 55.1448 -2.7109
v  -14.6626 45.2263 -2.7861
v  -7.7385 55.1410 -1.2402
v  -7.7448 60.4596 -1.1998
v  14.5634 45.2604 -2.7525
v  19.4613 55.2017 -4.7550
v  19.3788 60.5222 -4.7145
v  22.0162 60.5425 -6.8822
v  20.7829 60.5155 -4.1356
v  15.4058 60.4905 -1.6840
v  15.4121 55.1719 -1.7244
v  8.1633 60.4699 -0.0881
v  -4.7761 52.1616 -4.1200
v  -4.7683 45.5350 -4.1704
v  -5.6893 52.1377 -1.1273
v  -0.0666 52.1415 -0.7533
v  4.6638 52.1726 -4.1092
v  -0.0488 45.5374 -3.7534
v  -0.0588 45.5150 -0.8036
v  4.6716 45.5460 -4.1596
v  5.5702 52.1509 -1.1144
v  4.7026 19.1268 -4.3604
v  4.6948 25.7534 -4.3100
v  5.6090 19.1051 -1.3656
v  -0.0278 19.0958 -1.0045
v  -4.7372 19.1158 -4.3712
v  2.3346 25.7491 -4.1069
v  2.2124 25.7598 -5.5410
v  1.8276 25.8068 -11.7827
v  1.7061 26.4186 -12.4928
v  1.3605 24.4226 -15.7464
v  1.5718 22.7666 -14.4276
v  -2.2831 45.5473 -5.3956
v  -2.4086 45.5362 -3.9619
v  2.1892 45.5525 -5.3905
v  -22.1365 55.1701 -6.9746
v  -23.7651 55.1628 -6.5842
v  -23.7714 60.4814 -6.5438
v  -20.9145 60.4668 -4.1835
v  8.1696 55.1513 -0.1285
v  -20.9082 55.1482 -4.2239
v  -22.1259 45.2456 -7.0512
v  -22.1029 25.6809 -7.2000
v  7.6697 6.5529 -1.5921
v  14.5749 35.4373 -2.8272
v  19.4848 35.4588 -4.9053
v  19.4733 45.2495 -4.8309
v  7.6243 45.2412 -1.2980
v  -0.0403 35.4053 -0.8809
v  22.0364 45.2971 -7.0005
v  23.6451 60.5367 -6.4893
v  20.7891 55.1969 -4.1760
v  -4.7450 25.7424 -4.3209
v  -0.0256 25.7448 -3.9038
v  -0.0356 25.7223 -0.9541
v  -2.4164 52.1628 -3.9115
v  -2.2598 25.7546 -5.5461
v  -2.3775 19.1170 -4.1627
v  -2.3853 25.7436 -4.1123
v  2.3424 19.1225 -4.1573
v  22.0236 55.2216 -6.9239
v  23.6514 55.2182 -6.5297
v  -0.0698 60.4648 -0.6904
v  -0.0648 55.1375 0.4192
v  -15.5368 55.1358 -1.7600
v  -0.0023 3.1222 -1.1263
v  14.5467 60.4983 -2.6371
v  -5.6504 19.0920 -1.3785
v  2.3114 45.5417 -3.9565
v  -5.6815 45.5112 -1.1777
v  5.5779 45.5243 -1.1647
v  5.6012 25.7317 -1.3152
v  -5.6582 25.7186 -1.3281
# 131 vertices

vn 0.1372 0.0077 -0.9905
vn 0.1125 0.0077 -0.9936
vn 0.2545 0.0076 -0.9670
vn 0.0011 0.0076 -1.0000
vn -0.1349 0.0074 -0.9908
vn -0.2989 0.0069 -0.9543
vn 0.3011 0.0076 -0.9536
vn -0.0940 0.7286 -0.6785
vn -0.2996 0.0062 -0.9541
vn 0.3005 0.0074 -0.9538
vn 0.4281 0.0070 -0.9037
vn 0.8265 0.4362 -0.3559
vn 0.0002 0.6206 -0.7842
vn 0.1780 0.3969 -0.9004
vn -0.8267 0.4342 -0.3578
vn -0.6138 0.6895 -0.3845
vn -0.8055 -0.5821 0.1112
vn -0.8402 -0.2906 0.4579
vn 0.5259 0.0071 -0.8505
vn 0.6479 0.0066 -0.7617
vn 0.5260 0.0072 -0.8505
vn -0.6461 0.0050 -0.7632
vn -0.6461 0.0054 -0.7632
vn -0.5240 0.0060 -0.8517
vn -0.4260 0.0060 -0.9047
vn -0.2983 0.0067 -0.9544
vn -0.2523 0.0071 -0.9676
vn 0.6131 0.6909 -0.3831
vn 0.8066 -0.5802 0.1131
vn -0.5918 0.2509 -0.7660
vn -0.8409 0.2816 0.4622
vn 0.5930 0.2523 -0.7646
vn 0.8398 -0.2886 0.4598
vn -0.5913 -0.2407 -0.7697
vn -0.6122 -0.6850 -0.3950
vn -0.8257 -0.4307 -0.3644
vn 0.8275 -0.4288 -0.3625
vn 0.0016 -0.6086 -0.7935
vn -0.8068 0.5784 0.1200
vn -0.1045 0.6850 0.7211
vn -0.1434 -0.0077 0.9896
vn -0.0016 0.6867 0.7269
vn -0.2335 0.6781 0.6969
vn 0.2067 0.7358 -0.6448
vn 0.3493 0.7442 -0.5694
vn 0.1781 0.6254 -0.7597
vn 0.5252 0.0049 -0.8510
vn 0.3017 0.0069 -0.9534
vn 0.0939 0.7288 -0.6783
vn -0.5233 0.0036 -0.8522
vn -0.3498 0.7433 -0.5702
vn -0.1778 0.6250 -0.7601
vn 0.3885 0.6736 0.6288
vn 0.2303 0.6786 0.6975
vn 0.3168 -0.0068 0.9485
vn 0.1012 0.6852 0.7213
vn -0.4525 0.5936 -0.6655
vn -0.4511 -0.5845 -0.6745
vn -0.7282 0.6501 -0.2170
vn -0.0012 1.0000 0.0076
vn 0.4526 0.5947 -0.6645
vn 0.0016 -0.8917 -0.4526
vn 0.0012 -1.0000 -0.0076
vn 0.4540 -0.5834 -0.6734
vn 0.7272 0.6518 -0.2154
vn 0.4540 -0.5835 -0.6734
vn 0.7287 -0.6467 -0.2252
vn 0.7034 0.7087 -0.0545
vn 0.7016 0.7111 -0.0462
vn 0.8052 0.5803 0.1219
vn 0.8391 0.2836 0.4641
vn 0.5936 -0.2393 -0.7684
vn 0.6147 -0.6836 -0.3936
vn -0.7015 -0.7103 -0.0586
vn -0.7033 -0.7077 -0.0668
vn 0.7033 -0.7087 -0.0570
vn 0.3915 0.0075 -0.9201
vn -0.9744 0.0006 -0.2248
vn -0.8142 0.5506 -0.1843
vn -0.3915 0.6727 0.6279
vn 0.1412 -0.0074 0.9900
vn -0.5314 -0.0071 0.8471
vn 0.6478 0.0069 -0.7617
vn -0.1102 0.0074 -0.9939
vn -0.5239 0.0059 -0.8517
vn 0.8133 0.5525 -0.1824
vn 0.5295 -0.0058 0.8483
vn -0.0005 0.8985 -0.4390
vn -0.1769 0.3965 -0.9008
vn -0.7031 0.7095 -0.0478
vn -0.1760 -0.3831 -0.9068
vn -0.7050 0.7070 -0.0561
vn 0.1790 -0.3827 -0.9064
vn -0.3894 0.0066 -0.9210
vn 0.9749 0.0028 -0.2225
vn -0.0001 0.7273 -0.6863
vn -0.0011 -0.0076 1.0000
vn -0.3190 -0.0076 0.9477
vn -0.2069 0.7354 -0.6453
vn -0.7267 -0.6484 -0.2269
vn 0.7051 -0.7061 -0.0652
# 101 vertex normals

vt 0.2633 0.3749 0.0000
vt 0.2633 0.2184 0.0000
vt 0.1606 0.2883 0.0000
vt 0.3747 0.3750 0.0000
vt 0.3747 0.4930 0.0000
vt 0.2633 0.4930 0.0000
vt 0.2633 0.6270 0.0000
vt 0.1606 0.4931 0.0000
vt 0.2633 0.7660 0.0000
vt 0.1607 0.6270 0.0000
vt 0.3747 0.7660 0.0000
vt 0.3747 0.9065 0.0000
vt 0.2633 0.9065 0.0000
vt 0.2633 0.9818 0.0000
vt 0.1606 0.9065 0.0000
vt 0.1606 0.3750 0.0000
vt 0.0834 0.3750 0.0000
vt 0.8436 0.9441 0.0000
vt 0.8045 0.9803 0.0000
vt 0.8436 0.9803 0.0000
vt 0.7736 0.9441 0.0000
vt 0.7736 0.8045 0.0000
vt 0.7051 0.8045 0.0000
vt 0.7051 0.7584 0.0000
vt 0.0836 0.6270 0.0000
vt 0.0344 0.6270 0.0000
vt 0.0834 0.7660 0.0000
vt 0.0834 0.4930 0.0000
vt 0.0344 0.4930 0.0000
vt 0.8436 0.8045 0.0000
vt 0.9065 0.8045 0.0000
vt 0.7736 0.7584 0.0000
vt 0.7051 0.4026 0.0000
vt 0.8436 0.7584 0.0000
vt 0.9065 0.7584 0.0000
vt 0.7736 0.4026 0.0000
vt 0.7736 0.3553 0.0000
vt 0.7736 0.2150 0.0000
vt 0.8436 0.2150 0.0000
vt 0.8124 0.1759 0.0000
vt 0.7051 0.3553 0.0000
vt 0.3689 0.1014 0.0000
vt 0.3689 0.0156 0.0000
vt 0.5062 0.1014 0.0000
vt 0.2480 0.1014 0.0000
vt 0.2480 0.1406 0.0000
vt 0.1484 0.1406 0.0000
vt 0.0344 0.9819 0.0000
vt 0.0834 0.9818 0.0000
vt 0.0834 0.9065 0.0000
vt 0.1606 0.7660 0.0000
vt 0.9139 0.1406 0.0000
vt 0.8596 0.1406 0.0000
vt 0.8596 0.1014 0.0000
vt 0.7632 0.1014 0.0000
vt 0.7632 0.0156 0.0000
vt 0.6402 0.1014 0.0000
vt 0.5935 0.5003 0.0000
vt 0.4922 0.5003 0.0000
vt 0.5935 0.4625 0.0000
vt 0.5935 0.5770 0.0000
vt 0.6320 0.5770 0.0000
vt 0.5935 0.6483 0.0000
vt 0.4922 0.5770 0.0000
vt 0.4476 0.5770 0.0000
vt 0.4922 0.6483 0.0000
vt 0.5935 0.6911 0.0000
vt 0.4844 0.9138 0.0000
vt 0.5864 0.9138 0.0000
vt 0.4844 0.9565 0.0000
vt 0.4844 0.8426 0.0000
vt 0.4348 0.8426 0.0000
vt 0.4844 0.7659 0.0000
vt 0.9065 0.1759 0.0000
vt 0.9065 0.2150 0.0000
vt 0.9065 0.3553 0.0000
vt 0.9679 0.3553 0.0000
vt 0.9679 0.4026 0.0000
vt 0.9065 0.4026 0.0000
vt 0.8436 0.4026 0.0000
vt 0.8436 0.3553 0.0000
vt 0.9065 0.9441 0.0000
vt 0.9343 0.9802 0.0000
vt 0.9065 0.9802 0.0000
vt 0.9680 0.9441 0.0000
vt 0.9679 0.8045 0.0000
vt 0.0323 0.0156 0.0000
vt 0.0860 0.0156 0.0000
vt 0.0860 0.1014 0.0000
vt 0.1484 0.1014 0.0000
vt 0.0860 0.1406 0.0000
vt 0.6402 0.1406 0.0000
vt 0.6402 0.0156 0.0000
vt 0.1484 0.0156 0.0000
vt 0.0344 0.7660 0.0000
vt 0.1605 0.6270 0.0000
vt 0.0833 0.6270 0.0000
vt 0.3746 0.6270 0.0000
vt 0.9139 0.1014 0.0000
vt 0.8596 0.0156 0.0000
vt 0.5864 0.7659 0.0000
vt 0.5864 0.8426 0.0000
vt 0.6314 0.8426 0.0000
vt 0.7736 0.9803 0.0000
vt 0.7051 0.9803 0.0000
vt 0.9332 0.1758 0.0000
vt 0.9679 0.2150 0.0000
vt 0.7736 0.1759 0.0000
vt 0.7051 0.1759 0.0000
vt 0.8436 0.1759 0.0000
vt 0.9739 0.0156 0.0000
vt 0.9139 0.0156 0.0000
vt 0.5062 0.1406 0.0000
vt 0.3689 0.1406 0.0000
vt 0.5062 0.0156 0.0000
vt 0.2480 0.0156 0.0000
vt 0.3747 0.1700 0.0000
vt 0.0344 0.9065 0.0000
vt 0.1607 0.9819 0.0000
vt 0.3747 0.9818 0.0000
vt 0.7632 0.1406 0.0000
vt 0.4844 0.7280 0.0000
vt 0.7051 0.9441 0.0000
vt 0.7051 0.2150 0.0000
vt 0.9679 0.7584 0.0000
vt 0.9680 0.9803 0.0000
vt 0.9679 0.1757 0.0000
vt 0.0323 0.1014 0.0000
vt 0.9739 0.1014 0.0000
vt 0.3747 0.6270 0.0000
vt 0.1606 0.6270 0.0000
vt 0.6320 0.5003 0.0000
vt 0.4922 0.4625 0.0000
vt 0.4476 0.5003 0.0000
vt 0.4476 0.6483 0.0000
vt 0.4922 0.6911 0.0000
vt 0.6320 0.6483 0.0000
vt 0.5864 0.9565 0.0000
vt 0.6314 0.9138 0.0000
vt 0.6314 0.7659 0.0000
vt 0.5864 0.7280 0.0000
vt 0.4348 0.9138 0.0000
vt 0.4348 0.7659 0.0000
# 143 texture coords

g mesh2
usemtl Material__30
s 1
f 1/1/1 2/2/2 3/3/3 
f 2/2/2 1/1/1 4/4/4 
f 5/5/4 4/4/4 1/1/1 
f 4/4/4 5/5/4 6/6/5 
f 7/7/5 6/6/5 5/5/4 
f 6/6/5 7/7/5 8/8/6 
f 9/9/1 10/7/1 11/10/7 
f 10/7/1 9/9/1 12/11/4 
f 13/12/4 12/11/4 9/9/1 
f 12/11/4 13/12/4 14/13/5 
f 15/14/8 14/13/5 13/12/4 
f 14/13/5 15/14/8 16/15/9 
f 17/16/10 3/3/3 18/17/11 
f 3/3/3 17/16/10 1/1/1 
f 19/6/1 1/1/1 17/16/10 
f 1/1/1 19/6/1 5/5/4 
f 10/7/1 5/5/4 19/6/1 
f 20/18/12 21/19/13 22/20/14 
f 21/19/13 20/18/12 23/21/15 
f 24/22/16 23/21/15 20/18/12 
f 23/21/15 24/22/16 25/23/17 
f 26/24/18 25/23/17 24/22/16 
f 27/25/19 28/26/20 29/27/19 
f 28/26/20 27/25/19 30/28/21 
f 31/8/7 30/28/21 27/25/19 
f 30/28/21 31/8/7 17/16/10 
f 19/6/1 17/16/10 31/8/7 
f 32/26/22 33/29/23 34/28/24 
f 35/17/25 34/28/24 33/29/23 
f 34/28/24 35/17/25 36/16/26 
f 37/3/27 36/16/26 35/17/25 
f 36/16/26 37/3/27 38/1/5 
f 39/30/28 20/18/12 40/31/29 
f 20/18/12 39/30/28 24/22/16 
f 41/32/30 24/22/16 39/30/28 
f 24/22/16 41/32/30 26/24/18 
f 42/33/31 26/24/18 41/32/30 
f 43/34/32 39/30/28 44/35/33 
f 39/30/28 43/34/32 41/32/30 
f 45/36/34 41/32/30 43/34/32 
f 41/32/30 45/36/34 42/33/31 
f 46/37/35 42/33/31 45/36/34 
f 47/38/36 48/39/37 49/40/38 
f 48/39/37 47/38/36 46/37/35 
f 50/41/39 46/37/35 47/38/36 
f 46/37/35 50/41/39 42/33/31 
f 51/42/40 52/43/41 53/44/42 
f 52/43/41 51/42/40 54/45/43 
f 55/46/44 54/45/43 51/42/40 
f 54/45/43 55/46/44 56/47/45 
f 57/48/46 56/49/45 58/50/47 
f 59/15/48 58/50/47 56/49/45 
f 58/50/47 59/15/48 60/51/7 
f 61/13/1 60/51/7 59/15/48 
f 62/14/49 13/12/4 61/13/1 
f 9/9/1 61/13/1 13/12/4 
f 61/13/1 9/9/1 60/51/7 
f 11/10/7 60/51/7 9/9/1 
f 16/15/9 63/51/6 14/13/5 
f 63/51/6 16/15/9 64/50/50 
f 65/49/51 64/50/50 16/15/9 
f 64/50/50 65/49/51 66/48/52 
f 66/52/52 65/53/51 67/54/53 
f 68/55/54 67/54/53 65/53/51 
f 67/54/53 68/55/54 69/56/55 
f 70/57/56 69/56/55 68/55/54 
f 71/58/57 72/59/58 73/60/59 
f 72/59/58 71/58/57 21/61/13 
f 74/62/60 21/61/13 71/58/57 
f 21/61/13 74/62/60 75/63/61 
f 76/64/62 77/65/63 72/59/58 
f 77/65/63 76/64/62 78/66/64 
f 75/63/61 78/66/64 76/64/62 
f 78/66/64 75/63/61 79/67/65 
f 80/68/66 81/69/61 82/70/67 
f 81/69/61 80/68/66 49/71/38 
f 83/72/63 49/71/38 80/68/66 
f 49/71/38 83/72/63 84/73/58 
f 85/74/68 48/39/37 86/75/69 
f 87/76/70 86/75/69 48/39/37 
f 86/75/69 87/76/70 50/77/39 
f 42/78/31 50/77/39 87/76/70 
f 43/34/32 88/79/71 89/80/72 
f 90/81/73 89/80/72 88/79/71 
f 89/80/72 90/81/73 46/37/35 
f 48/39/37 46/37/35 90/81/73 
f 91/82/74 76/83/62 92/84/75 
f 76/83/62 91/82/74 93/85/76 
f 40/86/29 93/85/76 91/82/74 
f 94/87/77 95/88/78 96/89/79 
f 97/90/80 96/89/79 95/88/78 
f 96/89/79 97/90/80 57/91/46 
f 15/92/8 53/44/42 70/57/56 
f 98/93/81 70/57/56 53/44/42 
f 70/57/56 98/93/81 69/56/55 
f 99/94/82 54/45/43 97/90/80 
f 56/47/45 97/90/80 54/45/43 
f 97/90/80 56/47/45 57/91/46 
f 100/95/20 58/50/47 29/27/19 
f 60/51/7 29/27/19 58/50/47 
f 29/27/19 60/51/7 11/10/7 
f 30/28/21 101/29/83 28/26/20 
f 101/29/83 30/28/21 18/17/11 
f 17/16/10 18/17/11 30/28/21 
f 38/1/5 4/4/4 6/6/5 
f 4/4/4 38/1/5 102/2/84 
f 37/3/27 102/2/84 38/1/5 
f 8/8/6 36/16/26 6/6/5 
f 36/16/26 8/8/6 34/28/24 
f 103/96/6 34/28/24 8/8/6 
f 34/28/24 103/96/6 104/97/85 
f 105/27/85 104/97/85 103/96/6 
f 104/97/85 105/27/85 32/26/22 
f 106/9/5 7/7/5 107/98/4 
f 7/7/5 106/9/5 63/51/6 
f 14/13/5 63/51/6 106/9/5 
f 103/96/6 63/51/6 105/27/85 
f 64/50/50 105/27/85 63/51/6 
f 105/27/85 64/50/50 108/95/22 
f 67/54/53 109/99/86 66/52/52 
f 109/99/86 67/54/53 110/100/87 
f 69/56/55 110/100/87 67/54/53 
f 49/71/38 111/101/57 112/102/88 
f 113/103/60 112/102/88 111/101/57 
f 112/102/88 113/103/60 81/69/61 
f 87/76/70 88/79/71 42/78/31 
f 88/79/71 87/76/70 90/81/73 
f 48/39/37 90/81/73 87/76/70 
f 21/19/13 23/21/15 114/104/89 
f 92/105/75 114/104/89 23/21/15 
f 112/106/88 86/75/69 115/107/90 
f 50/77/39 115/107/90 86/75/69 
f 49/40/38 116/108/91 47/38/36 
f 117/109/92 47/38/36 116/108/91 
f 49/40/38 48/39/37 118/110/93 
f 85/74/68 118/110/93 48/39/37 
f 119/111/94 109/99/86 120/112/95 
f 110/100/87 120/112/95 109/99/86 
f 15/92/8 121/113/96 53/44/42 
f 62/114/49 53/44/42 121/113/96 
f 52/43/41 122/115/97 53/44/42 
f 98/93/81 53/44/42 122/115/97 
f 52/43/41 54/45/43 123/116/98 
f 99/94/82 123/116/98 54/45/43 
f 55/46/44 51/42/40 62/114/49 
f 53/44/42 62/114/49 51/42/40 
f 2/2/2 4/4/4 124/117/4 
f 102/2/84 124/117/4 4/4/4 
f 57/48/46 58/50/47 94/118/77 
f 100/95/20 94/118/77 58/50/47 
f 56/49/45 55/119/44 59/15/48 
f 62/14/49 59/15/48 55/119/44 
f 62/14/49 121/120/96 13/12/4 
f 15/14/8 13/12/4 121/120/96 
f 107/98/4 12/11/4 106/9/5 
f 14/13/5 106/9/5 12/11/4 
f 108/95/22 64/50/50 119/118/94 
f 66/48/52 119/118/94 64/50/50 
f 15/14/8 125/119/99 16/15/9 
f 65/49/51 16/15/9 125/119/99 
f 70/57/56 68/55/54 125/121/99 
f 65/53/51 125/121/99 68/55/54 
f 49/71/38 84/73/58 111/101/57 
f 126/122/100 111/101/57 84/73/58 
f 72/59/58 21/61/13 76/64/62 
f 75/63/61 76/64/62 21/61/13 
f 92/105/75 23/21/15 91/123/74 
f 25/23/17 91/123/74 23/21/15 
f 127/84/101 93/82/76 20/18/12 
f 40/31/29 20/18/12 93/82/76 
f 117/109/92 115/124/90 47/38/36 
f 50/41/39 47/38/36 115/124/90 
f 91/82/74 25/31/17 40/86/29 
f 26/35/18 40/86/29 25/31/17 
f 40/86/29 26/35/18 44/125/33 
f 42/79/31 44/125/33 26/35/18 
f 43/34/32 89/80/72 45/36/34 
f 46/37/35 45/36/34 89/80/72 
f 127/126/101 76/83/62 93/85/76 
f 85/74/68 86/75/69 112/106/88 
f 117/127/92 112/106/88 115/107/90 
f 94/87/77 96/89/79 57/128/46 
f 109/99/86 119/111/94 66/129/52 
f 97/90/80 95/88/78 99/94/82 
f 59/15/48 62/14/49 61/13/1 
f 29/27/19 28/26/20 100/95/20 
f 29/27/19 11/10/7 27/25/19 
f 10/7/1 12/11/4 107/130/4 
f 31/8/7 27/25/19 11/10/7 
f 11/10/7 19/6/1 31/8/7 
f 19/6/1 11/10/7 10/7/1 
f 5/5/4 10/7/1 107/130/4 
f 6/6/5 36/16/26 38/1/5 
f 7/7/5 5/5/4 107/98/4 
f 8/8/6 7/7/5 103/131/6 
f 32/26/22 34/28/24 104/97/85 
f 7/7/5 63/51/6 103/131/6 
f 32/26/22 105/27/85 108/95/22 
f 70/57/56 125/121/99 15/92/8 
f 81/69/61 49/71/38 112/102/88 
f 74/62/60 71/58/57 73/132/59 
f 73/60/59 72/59/58 128/133/100 
f 72/59/58 77/65/63 128/134/100 
f 77/65/63 78/66/64 129/135/67 
f 78/66/64 79/67/65 129/136/67 
f 75/63/61 74/62/60 79/137/65 
f 82/70/67 81/69/61 130/138/65 
f 81/69/61 113/103/60 130/139/65 
f 113/103/60 111/101/57 131/140/59 
f 111/101/57 126/122/100 131/141/59 
f 83/72/63 80/68/66 82/142/67 
f 84/73/58 83/72/63 126/143/100 
f 127/84/101 20/18/12 22/20/14 
f 44/35/33 39/30/28 40/31/29 
f 44/125/33 42/79/31 88/78/71 
f 88/79/71 43/34/32 44/35/33 
# 0 polygons - 216 triangles

#
# object mesh1
#

v  -20.8619 15.7701 -4.5233
v  -23.7294 24.7924 -6.8151
v  -19.4933 17.3239 -5.0614
v  -20.8725 24.7778 -4.4548
v  -15.5011 24.7654 -1.9909
v  -15.5136 35.3949 -1.9100
v  -8.2748 35.3912 -0.2975
v  -8.2863 45.2143 -0.2228
v  -0.0532 45.2197 0.3438
v  -0.0648 55.1375 0.4192
v  8.1696 55.1513 -0.1285
v  -0.0185 15.7438 0.1197
v  -8.2517 15.7384 -0.4469
v  -8.2372 3.4787 -0.5401
v  -0.0291 24.7670 0.1883
v  8.2053 24.7808 -0.3594
v  8.1928 35.4104 -0.2786
v  15.4353 35.4310 -1.8745
v  15.4238 45.2542 -1.7998
v  20.8008 45.2791 -4.2514
v  15.4121 55.1719 -1.7244
v  -14.6229 11.4838 -3.0426
v  -15.4824 8.8968 -2.1115
v  -15.4905 15.7421 -2.0594
v  -8.2623 24.7616 -0.3783
v  14.6030 11.5178 -3.0090
v  19.4644 17.3694 -5.0166
v  20.8354 15.8188 -4.4753
v  23.6871 24.8477 -6.7606
v  20.8248 24.8264 -4.4069
v  20.8123 35.4560 -4.3261
v  -15.5368 55.1358 -1.7600
v  -15.5251 45.2180 -1.8354
v  -20.8966 45.2305 -4.2993
v  -20.8850 35.4073 -4.3740
v  -23.7419 35.4219 -6.7343
v  -0.0416 35.3965 0.2691
v  8.1813 45.2335 -0.2039
v  15.4478 24.8015 -1.9553
v  8.2159 15.7576 -0.4279
v  8.2303 3.4979 -0.5211
v  -22.1259 45.2456 -7.0512
v  -23.7534 45.2450 -6.6596
v  -20.9082 55.1482 -4.2239
v  23.6630 45.3004 -6.6052
v  22.0364 45.2971 -7.0005
v  22.0236 55.2216 -6.9239
v  23.6746 35.4772 -6.6798
v  15.4665 8.9329 -2.0759
v  15.4584 15.7782 -2.0239
v  -22.1029 25.6809 -7.2000
v  -0.0023 3.1222 -1.1263
v  7.6697 6.5529 -1.5921
v  20.7891 55.1969 -4.1760
v  -22.1144 35.4268 -7.1259
v  22.0594 25.7324 -7.1492
v  22.0480 35.4783 -7.0751
v  23.6514 55.2182 -6.5297
v  -8.2980 55.1321 -0.1474
v  0.0000 0.0000 -0.0000
v  -7.6813 6.5350 -1.6097
v  -23.7651 55.1628 -6.5842
v  -22.1365 55.1701 -6.9746
# 63 vertices

vn -0.8310 -0.5477 -0.0979
vn -0.9329 -0.2159 -0.2883
vn -0.0458 -0.2911 -0.9556
vn -0.5314 -0.0071 0.8471
vn -0.3190 -0.0076 0.9477
vn -0.1434 -0.0077 0.9896
vn -0.0011 -0.0076 1.0000
vn 0.1412 -0.0074 0.9900
vn -0.4790 -0.8648 0.1506
vn 0.3168 -0.0068 0.9485
vn 0.5295 -0.0058 0.8483
vn -0.0182 -0.3323 -0.9430
vn -0.6609 -0.7473 0.0692
vn 0.0211 -0.3323 -0.9429
vn 0.0487 -0.2910 -0.9555
vn 0.8325 -0.5457 -0.0960
vn 0.9341 -0.2137 -0.2861
vn -0.9743 0.0006 -0.2252
vn 0.4807 -0.8637 0.1517
vn -0.2339 0.0072 -0.9722
vn -0.9743 0.0006 -0.2253
vn 0.9748 0.0029 -0.2230
vn 0.2361 0.0077 -0.9717
vn 0.2354 0.0077 -0.9719
vn 0.9748 0.0028 -0.2230
vn 0.6625 -0.7458 0.0707
vn -0.1753 -0.1033 -0.9791
vn 0.0015 -0.3349 -0.9422
vn 0.0576 -0.3212 -0.9453
vn -0.2339 0.0071 -0.9722
vn 0.1777 -0.1029 -0.9787
vn 0.9745 0.0029 -0.2243
vn 0.0010 -0.9863 0.1652
vn -0.0546 -0.3213 -0.9454
vn -0.9740 0.0006 -0.2265
vn -0.2332 0.0071 -0.9724
# 36 vertex normals

vt 0.1485 0.3348 0.0000
vt 0.0883 0.4846 0.0000
vt 0.0917 0.3348 0.0000
vt 0.1485 0.4846 0.0000
vt 0.2481 0.4846 0.0000
vt 0.2481 0.6592 0.0000
vt 0.3690 0.6592 0.0000
vt 0.3690 0.8219 0.0000
vt 0.5063 0.8219 0.0000
vt 0.5063 0.9843 0.0000
vt 0.6404 0.9843 0.0000
vt 0.5063 0.3348 0.0000
vt 0.3690 0.3348 0.0000
vt 0.3690 0.1307 0.0000
vt 0.5063 0.4846 0.0000
vt 0.6404 0.4846 0.0000
vt 0.6404 0.6592 0.0000
vt 0.7634 0.6592 0.0000
vt 0.7634 0.8219 0.0000
vt 0.8597 0.8219 0.0000
vt 0.7634 0.9843 0.0000
vt 0.2105 0.2024 0.0000
vt 0.2481 0.2180 0.0000
vt 0.2481 0.3348 0.0000
vt 0.3690 0.4846 0.0000
vt 0.8143 0.2119 0.0000
vt 0.9180 0.3348 0.0000
vt 0.8597 0.3348 0.0000
vt 0.9141 0.4846 0.0000
vt 0.8597 0.4846 0.0000
vt 0.8597 0.6592 0.0000
vt 0.2481 0.9843 0.0000
vt 0.2481 0.8219 0.0000
vt 0.1485 0.8219 0.0000
vt 0.1485 0.6592 0.0000
vt 0.0869 0.6592 0.0000
vt 0.5063 0.6592 0.0000
vt 0.6404 0.8219 0.0000
vt 0.7634 0.4846 0.0000
vt 0.6404 0.3348 0.0000
vt 0.6404 0.1350 0.0000
vt 0.0325 0.8219 0.0000
vt 0.0869 0.8219 0.0000
vt 0.1485 0.9843 0.0000
vt 0.9141 0.8219 0.0000
vt 0.9740 0.8219 0.0000
vt 0.9740 0.9843 0.0000
vt 0.9141 0.6592 0.0000
vt 0.7634 0.2262 0.0000
vt 0.7634 0.3348 0.0000
vt 0.0325 0.4846 0.0000
vt 0.5063 0.0371 0.0000
vt 0.6905 0.1019 0.0000
vt 0.8597 0.9843 0.0000
vt 0.0325 0.6592 0.0000
vt 0.9740 0.4846 0.0000
vt 0.9740 0.6592 0.0000
vt 0.9141 0.9843 0.0000
vt 0.3690 0.9843 0.0000
vt 0.5063 0.0754 0.0000
vt 0.3377 0.0963 0.0000
vt 0.0869 0.9843 0.0000
vt 0.0325 0.9843 0.0000
# 63 texture coords

g mesh1
usemtl Material__29
s 1
f 132/144/102 133/145/103 134/146/104 
f 133/145/103 132/144/102 135/147/105 
f 136/148/106 135/147/105 132/144/102 
f 135/147/105 136/148/106 137/149/106 
f 138/150/107 137/149/106 136/148/106 
f 137/149/106 138/150/107 139/151/107 
f 140/152/108 139/151/107 138/150/107 
f 139/151/107 140/152/108 141/153/108 
f 142/154/109 141/153/108 140/152/108 
f 143/155/108 144/156/107 145/157/110 
f 144/156/107 143/155/108 146/158/108 
f 147/159/109 146/158/108 143/155/108 
f 146/158/108 147/159/109 148/160/109 
f 149/161/111 148/160/109 147/159/109 
f 148/160/109 149/161/111 150/162/111 
f 151/163/112 150/162/111 149/161/111 
f 150/162/111 151/163/112 152/164/111 
f 153/165/113 154/166/114 132/144/102 
f 155/167/106 132/144/102 154/166/114 
f 132/144/102 155/167/106 136/148/106 
f 156/168/107 136/148/106 155/167/106 
f 136/148/106 156/168/107 138/150/107 
f 146/158/108 138/150/107 156/168/107 
f 157/169/115 158/170/116 159/171/117 
f 160/172/118 159/171/117 158/170/116 
f 159/171/117 160/172/118 161/173/112 
f 162/174/112 161/173/112 160/172/118 
f 161/173/112 162/174/112 149/161/111 
f 151/163/112 149/161/111 162/174/112 
f 139/151/107 163/175/106 164/176/106 
f 165/177/105 164/176/106 163/175/106 
f 164/176/106 165/177/105 166/178/105 
f 167/179/119 166/178/105 165/177/105 
f 166/178/105 167/179/119 135/147/105 
f 138/150/107 146/158/108 168/180/108 
f 148/160/109 168/180/108 146/158/108 
f 168/180/108 148/160/109 169/181/109 
f 150/162/111 169/181/109 148/160/109 
f 169/181/109 150/162/111 152/164/111 
f 161/173/112 149/161/111 170/182/111 
f 147/159/109 170/182/111 149/161/111 
f 170/182/111 147/159/109 171/183/109 
f 143/155/108 171/183/109 147/159/109 
f 171/183/109 143/155/108 172/184/120 
f 173/185/121 167/179/119 174/186/122 
f 165/177/105 174/186/122 167/179/119 
f 174/186/122 165/177/105 175/187/105 
f 163/175/106 175/187/105 165/177/105 
f 176/188/123 177/189/124 178/190/125 
f 177/189/124 176/188/123 179/191/126 
f 162/174/112 179/191/126 176/188/123 
f 179/191/126 162/174/112 160/172/118 
f 138/150/107 168/180/108 140/152/108 
f 169/181/109 140/152/108 168/180/108 
f 140/152/108 169/181/109 142/154/109 
f 152/164/111 142/154/109 169/181/109 
f 159/171/117 180/192/127 157/169/115 
f 180/192/127 159/171/117 181/193/111 
f 170/182/111 181/193/111 159/171/117 
f 181/193/111 170/182/111 171/183/109 
f 146/158/108 156/168/107 144/156/107 
f 155/167/106 144/156/107 156/168/107 
f 144/156/107 155/167/106 154/166/114 
f 139/151/107 164/176/106 137/149/106 
f 166/178/105 137/149/106 164/176/106 
f 137/149/106 166/178/105 135/147/105 
f 133/145/103 182/194/128 134/146/104 
f 182/194/128 133/145/103 167/179/119 
f 135/147/105 167/179/119 133/145/103 
f 183/195/129 184/196/130 172/184/120 
f 180/192/127 172/184/120 184/196/130 
f 172/184/120 180/192/127 171/183/109 
f 162/174/112 176/188/123 151/163/112 
f 185/197/112 151/163/112 176/188/123 
f 151/163/112 185/197/112 152/164/111 
f 182/194/128 167/179/119 186/198/131 
f 173/185/121 186/198/131 167/179/119 
f 187/199/132 188/200/124 179/191/126 
f 177/189/124 179/191/126 188/200/124 
f 179/191/126 160/172/118 187/199/132 
f 158/170/116 187/199/132 160/172/118 
f 178/190/125 189/201/133 176/188/123 
f 185/197/112 176/188/123 189/201/133 
f 141/153/108 190/202/107 139/151/107 
f 163/175/106 139/151/107 190/202/107 
f 143/155/108 145/157/110 191/203/134 
f 183/195/129 191/203/134 145/157/110 
f 144/156/107 154/166/114 145/157/110 
f 192/204/135 145/157/110 154/166/114 
f 175/187/105 193/205/136 174/186/122 
f 194/206/137 174/186/122 193/205/136 
f 183/195/129 172/184/120 191/203/134 
f 143/155/108 191/203/134 172/184/120 
f 183/195/129 145/157/110 192/204/135 
f 192/204/135 154/166/114 153/165/113 
f 153/165/113 132/144/102 134/146/104 
f 174/186/122 194/206/137 173/185/121 
f 180/192/127 184/196/130 157/169/115 
f 170/182/111 159/171/117 161/173/112 
f 171/183/109 180/192/127 181/193/111 
# 0 polygons - 100 triangles

